<svg width="74" height="74" fill="currentColor" viewBox="0 0 24 24" xmlns="http://www.w3.org/2000/svg">
   <path fill-rule="evenodd" d="M6.989 4.89a64.247 64.247 0 0 1 10.022 0l2.241.176a2.725 2.725 0 0 1 2.475 2.268c.517 3.09.517 6.243 0 9.332a2.725 2.725 0 0 1-2.475 2.268l-2.24.175a64.24 64.24 0 0 1-10.023 0l-2.24-.175a2.725 2.725 0 0 1-2.476-2.268 28.315 28.315 0 0 1 0-9.332 2.725 2.725 0 0 1 2.475-2.268L6.99 4.89ZM10 14.47V9.53a.3.3 0 0 1 .454-.257l4.117 2.47a.3.3 0 0 1 0 .514l-4.117 2.47A.3.3 0 0 1 10 14.47Z" clip-rule="evenodd"></path>
</svg>